<svg width="40" height="40" viewBox="0 0 40 40" fill="none" xmlns="http://www.w3.org/2000/svg">
<path fill-rule="evenodd" clip-rule="evenodd" d="M20 36.6667C10.795 36.6667 3.33334 29.205 3.33334 20C3.33334 10.795 10.795 3.33337 20 3.33337C29.205 3.33337 36.6667 10.795 36.6667 20C36.6667 29.205 29.205 36.6667 20 36.6667ZM20 33.3334C23.5362 33.3334 26.9276 31.9286 29.4281 29.4281C31.9286 26.9276 33.3333 23.5363 33.3333 20C33.3333 16.4638 31.9286 13.0724 29.4281 10.572C26.9276 8.07147 23.5362 6.66671 20 6.66671C16.4638 6.66671 13.0724 8.07147 10.5719 10.572C8.07143 13.0724 6.66668 16.4638 6.66668 20C6.66668 23.5363 8.07143 26.9276 10.5719 29.4281C13.0724 31.9286 16.4638 33.3334 20 33.3334ZM11.6667 25H15V28.3334L11.6667 25ZM28.3333 25L25 28.3334V25H28.3333ZM15 11.6667V15H11.6667L15 11.6667ZM25 11.6667L28.3333 15H25V11.6667ZM20.8333 15C21.4964 15 22.1323 14.7366 22.6011 14.2678C23.07 13.799 23.3333 13.1631 23.3333 12.5C23.3333 11.837 23.07 11.2011 22.6011 10.7323C22.1323 10.2634 21.4964 10 20.8333 10C20.1703 10 19.5344 10.2634 19.0656 10.7323C18.5967 11.2011 18.3333 11.837 18.3333 12.5C18.3333 13.1631 18.5967 13.799 19.0656 14.2678C19.5344 14.7366 20.1703 15 20.8333 15ZM12.5 21.6667C13.1631 21.6667 13.7989 21.4033 14.2678 20.9345C14.7366 20.4656 15 19.8297 15 19.1667C15 18.5037 14.7366 17.8678 14.2678 17.3989C13.7989 16.9301 13.1631 16.6667 12.5 16.6667C11.837 16.6667 11.2011 16.9301 10.7322 17.3989C10.2634 17.8678 10 18.5037 10 19.1667C10 19.8297 10.2634 20.4656 10.7322 20.9345C11.2011 21.4033 11.837 21.6667 12.5 21.6667ZM27.5 23.3334C27.8283 23.3334 28.1534 23.2687 28.4567 23.1431C28.76 23.0174 29.0356 22.8333 29.2678 22.6011C29.4999 22.369 29.6841 22.0934 29.8097 21.7901C29.9353 21.4868 30 21.1617 30 20.8334C30 20.5051 29.9353 20.18 29.8097 19.8767C29.6841 19.5734 29.4999 19.2978 29.2678 19.0656C29.0356 18.8335 28.76 18.6493 28.4567 18.5237C28.1534 18.398 27.8283 18.3334 27.5 18.3334C26.837 18.3334 26.2011 18.5968 25.7322 19.0656C25.2634 19.5344 25 20.1703 25 20.8334C25 21.4964 25.2634 22.1323 25.7322 22.6011C26.2011 23.07 26.837 23.3334 27.5 23.3334ZM20 21.6667C20.442 21.6667 20.866 21.4911 21.1785 21.1786C21.4911 20.866 21.6667 20.4421 21.6667 20C21.6667 19.558 21.4911 19.1341 21.1785 18.8215C20.866 18.509 20.442 18.3334 20 18.3334C19.558 18.3334 19.1341 18.509 18.8215 18.8215C18.5089 19.1341 18.3333 19.558 18.3333 20C18.3333 20.4421 18.5089 20.866 18.8215 21.1786C19.1341 21.4911 19.558 21.6667 20 21.6667ZM19.1667 30C19.8297 30 20.4656 29.7366 20.9344 29.2678C21.4033 28.799 21.6667 28.1631 21.6667 27.5C21.6667 26.837 21.4033 26.2011 20.9344 25.7323C20.4656 25.2634 19.8297 25 19.1667 25C18.5036 25 17.8678 25.2634 17.3989 25.7323C16.9301 26.2011 16.6667 26.837 16.6667 27.5C16.6667 28.1631 16.9301 28.799 17.3989 29.2678C17.8678 29.7366 18.5036 30 19.1667 30Z" fill="#F88C20"/>
</svg>
