<svg width="40" height="40" viewBox="0 0 40 40" fill="none" xmlns="http://www.w3.org/2000/svg">
<path fill-rule="evenodd" clip-rule="evenodd" d="M20 35C11.7155 35 5 28.2845 5 20C5 11.7155 11.7155 5 20 5C28.2845 5 35 11.7155 35 20C35 28.2845 28.2845 35 20 35ZM20 32C23.1826 32 26.2348 30.7357 28.4853 28.4853C30.7357 26.2348 32 23.1826 32 20C32 16.8174 30.7357 13.7652 28.4853 11.5147C26.2348 9.26428 23.1826 8 20 8C16.8174 8 13.7652 9.26428 11.5147 11.5147C9.26428 13.7652 8 16.8174 8 20C8 23.1826 9.26428 26.2348 11.5147 28.4853C13.7652 30.7357 16.8174 32 20 32ZM12.5 24.5H15.5V27.5L12.5 24.5ZM27.5 24.5L24.5 27.5V24.5H27.5ZM15.5 12.5V15.5H12.5L15.5 12.5ZM24.5 12.5L27.5 15.5H24.5V12.5ZM20.75 15.5C21.3467 15.5 21.919 15.2629 22.341 14.841C22.7629 14.419 23 13.8467 23 13.25C23 12.6533 22.7629 12.081 22.341 11.659C21.919 11.2371 21.3467 11 20.75 11C20.1533 11 19.581 11.2371 19.159 11.659C18.7371 12.081 18.5 12.6533 18.5 13.25C18.5 13.8467 18.7371 14.419 19.159 14.841C19.581 15.2629 20.1533 15.5 20.75 15.5ZM13.25 21.5C13.8467 21.5 14.419 21.2629 14.841 20.841C15.2629 20.419 15.5 19.8467 15.5 19.25C15.5 18.6533 15.2629 18.081 14.841 17.659C14.419 17.2371 13.8467 17 13.25 17C12.6533 17 12.081 17.2371 11.659 17.659C11.2371 18.081 11 18.6533 11 19.25C11 19.8467 11.2371 20.419 11.659 20.841C12.081 21.2629 12.6533 21.5 13.25 21.5ZM26.75 23C27.0455 23 27.3381 22.9418 27.611 22.8287C27.884 22.7157 28.1321 22.5499 28.341 22.341C28.5499 22.1321 28.7157 21.884 28.8287 21.611C28.9418 21.3381 29 21.0455 29 20.75C29 20.4545 28.9418 20.1619 28.8287 19.889C28.7157 19.616 28.5499 19.3679 28.341 19.159C28.1321 18.9501 27.884 18.7843 27.611 18.6713C27.3381 18.5582 27.0455 18.5 26.75 18.5C26.1533 18.5 25.581 18.7371 25.159 19.159C24.7371 19.581 24.5 20.1533 24.5 20.75C24.5 21.3467 24.7371 21.919 25.159 22.341C25.581 22.7629 26.1533 23 26.75 23ZM20 21.5C20.3978 21.5 20.7794 21.342 21.0607 21.0607C21.342 20.7794 21.5 20.3978 21.5 20C21.5 19.6022 21.342 19.2206 21.0607 18.9393C20.7794 18.658 20.3978 18.5 20 18.5C19.6022 18.5 19.2206 18.658 18.9393 18.9393C18.658 19.2206 18.5 19.6022 18.5 20C18.5 20.3978 18.658 20.7794 18.9393 21.0607C19.2206 21.342 19.6022 21.5 20 21.5ZM19.25 29C19.8467 29 20.419 28.7629 20.841 28.341C21.2629 27.919 21.5 27.3467 21.5 26.75C21.5 26.1533 21.2629 25.581 20.841 25.159C20.419 24.7371 19.8467 24.5 19.25 24.5C18.6533 24.5 18.081 24.7371 17.659 25.159C17.2371 25.581 17 26.1533 17 26.75C17 27.3467 17.2371 27.919 17.659 28.341C18.081 28.7629 18.6533 29 19.25 29Z" fill="#F88C20"/>
</svg>
