<svg width="40" height="40" viewBox="0 0 40 40" fill="none" xmlns="http://www.w3.org/2000/svg">
<path fill-rule="evenodd" clip-rule="evenodd" d="M20 32C13.3724 32 8 26.6276 8 20C8 13.3724 13.3724 8 20 8C26.6276 8 32 13.3724 32 20C32 26.6276 26.6276 32 20 32ZM20 29.6C22.5461 29.6 24.9879 28.5886 26.7882 26.7882C28.5886 24.9879 29.6 22.5461 29.6 20C29.6 17.4539 28.5886 15.0121 26.7882 13.2118C24.9879 11.4114 22.5461 10.4 20 10.4C17.4539 10.4 15.0121 11.4114 13.2118 13.2118C11.4114 15.0121 10.4 17.4539 10.4 20C10.4 22.5461 11.4114 24.9879 13.2118 26.7882C15.0121 28.5886 17.4539 29.6 20 29.6ZM14 23.6H16.4V26L14 23.6ZM26 23.6L23.6 26V23.6H26ZM16.4 14V16.4H14L16.4 14ZM23.6 14L26 16.4H23.6V14ZM20.6 16.4C21.0774 16.4 21.5352 16.2104 21.8728 15.8728C22.2104 15.5352 22.4 15.0774 22.4 14.6C22.4 14.1226 22.2104 13.6648 21.8728 13.3272C21.5352 12.9896 21.0774 12.8 20.6 12.8C20.1226 12.8 19.6648 12.9896 19.3272 13.3272C18.9896 13.6648 18.8 14.1226 18.8 14.6C18.8 15.0774 18.9896 15.5352 19.3272 15.8728C19.6648 16.2104 20.1226 16.4 20.6 16.4ZM14.6 21.2C15.0774 21.2 15.5352 21.0104 15.8728 20.6728C16.2104 20.3352 16.4 19.8774 16.4 19.4C16.4 18.9226 16.2104 18.4648 15.8728 18.1272C15.5352 17.7896 15.0774 17.6 14.6 17.6C14.1226 17.6 13.6648 17.7896 13.3272 18.1272C12.9896 18.4648 12.8 18.9226 12.8 19.4C12.8 19.8774 12.9896 20.3352 13.3272 20.6728C13.6648 21.0104 14.1226 21.2 14.6 21.2ZM25.4 22.4C25.6364 22.4 25.8704 22.3534 26.0888 22.263C26.3072 22.1725 26.5056 22.0399 26.6728 21.8728C26.8399 21.7056 26.9725 21.5072 27.063 21.2888C27.1534 21.0704 27.2 20.8364 27.2 20.6C27.2 20.3636 27.1534 20.1296 27.063 19.9112C26.9725 19.6928 26.8399 19.4944 26.6728 19.3272C26.5056 19.1601 26.3072 19.0275 26.0888 18.937C25.8704 18.8466 25.6364 18.8 25.4 18.8C24.9226 18.8 24.4648 18.9896 24.1272 19.3272C23.7896 19.6648 23.6 20.1226 23.6 20.6C23.6 21.0774 23.7896 21.5352 24.1272 21.8728C24.4648 22.2104 24.9226 22.4 25.4 22.4ZM20 21.2C20.3183 21.2 20.6235 21.0736 20.8485 20.8485C21.0736 20.6235 21.2 20.3183 21.2 20C21.2 19.6817 21.0736 19.3765 20.8485 19.1515C20.6235 18.9264 20.3183 18.8 20 18.8C19.6817 18.8 19.3765 18.9264 19.1515 19.1515C18.9264 19.3765 18.8 19.6817 18.8 20C18.8 20.3183 18.9264 20.6235 19.1515 20.8485C19.3765 21.0736 19.6817 21.2 20 21.2ZM19.4 27.2C19.8774 27.2 20.3352 27.0104 20.6728 26.6728C21.0104 26.3352 21.2 25.8774 21.2 25.4C21.2 24.9226 21.0104 24.4648 20.6728 24.1272C20.3352 23.7896 19.8774 23.6 19.4 23.6C18.9226 23.6 18.4648 23.7896 18.1272 24.1272C17.7896 24.4648 17.6 24.9226 17.6 25.4C17.6 25.8774 17.7896 26.3352 18.1272 26.6728C18.4648 27.0104 18.9226 27.2 19.4 27.2Z" fill="#F88C20"/>
</svg>
